<svg xmlns="http://www.w3.org/2000/svg" width="204.146" height="73.592" viewBox="0 0 204.146 73.592"><defs><style>.a{fill:#22232b;}.b{fill:#3ebce2;}</style></defs><g transform="translate(-37.146 -21.434)"><g transform="translate(37.146 74.648)"><path class="a" d="M12.464,149.2v19.949H9.706v-8.7H2.758v8.7H0V149.2H2.758v8.56H9.706V149.2Z" transform="translate(0 -149.057)"/><path class="a" d="M67.871,158.936a14.371,14.371,0,0,1-.537,4.047,10.317,10.317,0,0,1-1.5,3.223,7,7,0,0,1-2.364,2.113,6.326,6.326,0,0,1-3.08.752,6.188,6.188,0,0,1-3.044-.752,7,7,0,0,1-2.364-2.113,10.361,10.361,0,0,1-1.54-3.223,14.737,14.737,0,0,1-.537-4.047,14.553,14.553,0,0,1,.537-4.047,9.624,9.624,0,0,1,1.54-3.223,7.356,7.356,0,0,1,2.364-2.113,6.286,6.286,0,0,1,3.044-.752,5.822,5.822,0,0,1,2.113.358,7.6,7.6,0,0,1,1.827,1,7.932,7.932,0,0,1,1.5,1.576,9.3,9.3,0,0,1,1.11,2.041,15.435,15.435,0,0,1,.716,2.471A15.116,15.116,0,0,1,67.871,158.936Zm-2.794,0A12.082,12.082,0,0,0,64.755,156a7.4,7.4,0,0,0-.931-2.221,4.2,4.2,0,0,0-1.468-1.4,4.25,4.25,0,0,0-3.868,0,4.2,4.2,0,0,0-1.468,1.4A7.4,7.4,0,0,0,56.088,156a12.29,12.29,0,0,0-.322,2.937,12.081,12.081,0,0,0,.322,2.937,7.4,7.4,0,0,0,.931,2.221,4.2,4.2,0,0,0,1.468,1.4,4.25,4.25,0,0,0,3.868,0,4.2,4.2,0,0,0,1.468-1.4,7.03,7.03,0,0,0,.931-2.221A12.291,12.291,0,0,0,65.077,158.936Z" transform="translate(-33.954 -148.8)"/><path class="a" d="M125.471,158.936a14.371,14.371,0,0,1-.537,4.047,10.317,10.317,0,0,1-1.5,3.223,7,7,0,0,1-2.364,2.113,6.326,6.326,0,0,1-3.08.752,6.187,6.187,0,0,1-3.044-.752,7,7,0,0,1-2.364-2.113,10.361,10.361,0,0,1-1.54-3.223,14.738,14.738,0,0,1-.537-4.047,14.553,14.553,0,0,1,.537-4.047,9.623,9.623,0,0,1,1.54-3.223,7,7,0,0,1,2.364-2.113,6.286,6.286,0,0,1,3.044-.752,5.822,5.822,0,0,1,2.113.358,7.6,7.6,0,0,1,1.827,1,7.035,7.035,0,0,1,1.5,1.576,9.3,9.3,0,0,1,1.11,2.041,12.456,12.456,0,0,1,.716,2.471A19.442,19.442,0,0,1,125.471,158.936Zm-2.829,0a12.081,12.081,0,0,0-.322-2.937,7.4,7.4,0,0,0-.931-2.221,4.2,4.2,0,0,0-1.468-1.4,4.25,4.25,0,0,0-3.868,0,4.2,4.2,0,0,0-1.468,1.4,7.4,7.4,0,0,0-.931,2.221,12.289,12.289,0,0,0-.322,2.937,12.08,12.08,0,0,0,.322,2.937,7.4,7.4,0,0,0,.931,2.221,4.2,4.2,0,0,0,1.468,1.4,4.25,4.25,0,0,0,3.868,0,4.2,4.2,0,0,0,1.468-1.4,7.029,7.029,0,0,0,.931-2.221A12.29,12.29,0,0,0,122.641,158.936Z" transform="translate(-70.924 -148.8)"/><path class="a" d="M175.363,149.2a6.377,6.377,0,0,1,2.579.466,4.515,4.515,0,0,1,1.791,1.325A5.348,5.348,0,0,1,180.771,153a9.748,9.748,0,0,1,.358,2.579,8.788,8.788,0,0,1-.358,2.65A6.346,6.346,0,0,1,179.7,160.3a4.865,4.865,0,0,1-1.791,1.361,6.141,6.141,0,0,1-2.507.466h-2.041v7.02H170.6V149.2h4.763Zm0,10.028a3.126,3.126,0,0,0,1.325-.251,3.081,3.081,0,0,0,.931-.716,3.822,3.822,0,0,0,.573-1.146,5.055,5.055,0,0,0,.179-1.54,5.8,5.8,0,0,0-.179-1.433,3.558,3.558,0,0,0-.537-1.11,2.509,2.509,0,0,0-.931-.68,3.639,3.639,0,0,0-1.325-.251h-2.041v7.163h2.006Z" transform="translate(-109.499 -149.057)"/><path class="a" d="M219.958,152.173v5.516h5.157v2.865h-5.157v5.623h6.554v2.973H217.2V149.2h9.312v2.937h-6.554Z" transform="translate(-139.409 -149.057)"/><path class="a" d="M267.161,152.789a2.272,2.272,0,0,1-.251.43.636.636,0,0,1-.358.143.77.77,0,0,1-.466-.215c-.179-.143-.358-.286-.609-.466a3.551,3.551,0,0,0-.824-.466,2.67,2.67,0,0,0-1.11-.215,2.788,2.788,0,0,0-1,.179,1.731,1.731,0,0,0-.716.5,2.78,2.78,0,0,0-.43.788,3.089,3.089,0,0,0-.143,1,2.4,2.4,0,0,0,.286,1.182,2.368,2.368,0,0,0,.788.788,6.436,6.436,0,0,0,1.11.609c.394.179.824.358,1.254.573a13.955,13.955,0,0,1,1.254.681,4.861,4.861,0,0,1,1.11,1,5.182,5.182,0,0,1,.788,1.468,7.174,7.174,0,0,1,.287,2.113,8.4,8.4,0,0,1-.358,2.543,6.042,6.042,0,0,1-1,2.041,5.058,5.058,0,0,1-1.612,1.4,4.789,4.789,0,0,1-2.185.5,6.222,6.222,0,0,1-1.4-.179,4.689,4.689,0,0,1-1.325-.537,5.383,5.383,0,0,1-1.182-.824,6.908,6.908,0,0,1-.967-1.074l.824-1.791a.78.78,0,0,1,.251-.322.636.636,0,0,1,.358-.143.8.8,0,0,1,.537.287c.215.179.43.394.716.645a11.312,11.312,0,0,0,.967.645,2.9,2.9,0,0,0,1.325.287,2.275,2.275,0,0,0,1.827-.752,3.208,3.208,0,0,0,.645-2.149,2.644,2.644,0,0,0-.287-1.289,2.469,2.469,0,0,0-.788-.824,4.621,4.621,0,0,0-1.11-.573c-.394-.143-.824-.322-1.254-.5a10.416,10.416,0,0,1-1.254-.645,4.866,4.866,0,0,1-1.11-1,5.655,5.655,0,0,1-.788-1.54,8.323,8.323,0,0,1-.286-2.292,7.032,7.032,0,0,1,.322-2.113,6.277,6.277,0,0,1,.931-1.827,4.252,4.252,0,0,1,3.582-1.755,5.362,5.362,0,0,1,2.4.537,5.186,5.186,0,0,1,1.862,1.54Z" transform="translate(-165.661 -148.993)"/><path class="a" d="M336.733,149.2l-5.945,19.949h-2.507L322.3,149.2h2.221a.668.668,0,0,1,.573.251,1.408,1.408,0,0,1,.322.609l3.474,12.177q.161.591.322,1.289c.107.466.215.967.286,1.468.072-.5.179-1,.251-1.468q.161-.7.322-1.289l3.474-12.177a1.814,1.814,0,0,1,.322-.573.713.713,0,0,1,.573-.251h2.292Z" transform="translate(-206.868 -149.057)"/><path class="a" d="M381.058,169.149H378.3V149.2h2.758Z" transform="translate(-242.811 -149.057)"/><path class="a" d="M412.361,152.789a2.286,2.286,0,0,1-.251.43.637.637,0,0,1-.358.143.77.77,0,0,1-.466-.215c-.179-.143-.358-.286-.609-.466a3.552,3.552,0,0,0-.824-.466,2.67,2.67,0,0,0-1.11-.215,2.787,2.787,0,0,0-1,.179,1.73,1.73,0,0,0-.716.5,2.778,2.778,0,0,0-.43.788,3.088,3.088,0,0,0-.143,1,2.4,2.4,0,0,0,.286,1.182,2.367,2.367,0,0,0,.788.788,6.437,6.437,0,0,0,1.11.609c.394.179.824.358,1.254.573a13.982,13.982,0,0,1,1.254.681,4.861,4.861,0,0,1,1.11,1,5.185,5.185,0,0,1,.788,1.468,7.173,7.173,0,0,1,.286,2.113,8.392,8.392,0,0,1-.358,2.543,6.04,6.04,0,0,1-1,2.041,5.058,5.058,0,0,1-1.612,1.4,4.789,4.789,0,0,1-2.185.5,6.22,6.22,0,0,1-1.4-.179,4.689,4.689,0,0,1-1.325-.537,5.382,5.382,0,0,1-1.182-.824,6.908,6.908,0,0,1-.967-1.074l.824-1.791a.78.78,0,0,1,.251-.322.636.636,0,0,1,.358-.143.8.8,0,0,1,.537.287c.215.179.43.394.716.645a11.322,11.322,0,0,0,.967.645,2.9,2.9,0,0,0,1.325.287,2.275,2.275,0,0,0,1.827-.752,3.208,3.208,0,0,0,.645-2.149,2.645,2.645,0,0,0-.286-1.289,2.471,2.471,0,0,0-.788-.824,4.622,4.622,0,0,0-1.11-.573c-.394-.143-.824-.322-1.254-.5a10.41,10.41,0,0,1-1.254-.645,4.867,4.867,0,0,1-1.11-1,5.656,5.656,0,0,1-.788-1.54,7.148,7.148,0,0,1-.287-2.292,7.033,7.033,0,0,1,.322-2.113,6.276,6.276,0,0,1,.931-1.827,4.252,4.252,0,0,1,3.581-1.755,5.362,5.362,0,0,1,2.4.537,5.185,5.185,0,0,1,1.862,1.54Z" transform="translate(-258.857 -148.993)"/><path class="a" d="M452.158,169.149H449.4V149.2h2.758Z" transform="translate(-288.447 -149.057)"/><path class="a" d="M490.271,158.936a14.372,14.372,0,0,1-.537,4.047,10.317,10.317,0,0,1-1.5,3.223,7,7,0,0,1-2.364,2.113,6.326,6.326,0,0,1-3.08.752,6.187,6.187,0,0,1-3.044-.752,7,7,0,0,1-2.364-2.113,10.361,10.361,0,0,1-1.54-3.223,14.737,14.737,0,0,1-.537-4.047,14.553,14.553,0,0,1,.537-4.047,9.624,9.624,0,0,1,1.54-3.223,7,7,0,0,1,2.364-2.113,6.286,6.286,0,0,1,3.044-.752,5.822,5.822,0,0,1,2.113.358,7.6,7.6,0,0,1,1.827,1,7.034,7.034,0,0,1,1.5,1.576,9.291,9.291,0,0,1,1.11,2.041,12.449,12.449,0,0,1,.716,2.471A19.447,19.447,0,0,1,490.271,158.936Zm-2.829,0a12.08,12.08,0,0,0-.322-2.937,7.4,7.4,0,0,0-.931-2.221,4.2,4.2,0,0,0-1.468-1.4,4.25,4.25,0,0,0-3.868,0,4.2,4.2,0,0,0-1.468,1.4,7.406,7.406,0,0,0-.931,2.221,12.286,12.286,0,0,0-.322,2.937,12.077,12.077,0,0,0,.322,2.937,7.405,7.405,0,0,0,.931,2.221,4.2,4.2,0,0,0,1.468,1.4,4.25,4.25,0,0,0,3.868,0,4.2,4.2,0,0,0,1.468-1.4,7.027,7.027,0,0,0,.931-2.221A12.29,12.29,0,0,0,487.441,158.936Z" transform="translate(-305.07 -148.8)"/><path class="a" d="M547.664,149.2v19.949h-1.4a.863.863,0,0,1-.537-.143,1.552,1.552,0,0,1-.43-.5l-7.736-13.287c.036.609.072,1.182.072,1.683v12.249H535.2V149.2h1.433a.7.7,0,0,1,.286.036.509.509,0,0,1,.215.072.432.432,0,0,1,.179.179,1.251,1.251,0,0,1,.215.322l7.736,13.359a8.755,8.755,0,0,1-.036-.967c0-.322-.036-.609-.036-.86V149.236h2.471Z" transform="translate(-343.517 -149.057)"/></g><g transform="translate(64.187 21.434)"><g transform="translate(0 0)"><path class="a" d="M182.838,18.659l.358.86c-23.71-25.106-41.367-13.359-50.965-6.733-8.2,6.447-11.353,8.882-12.571,9.778C118.013,23.745,97.6,37.641,75.607,39.038H75.5c28.616-5.945,40.471-18.158,42.907-19.877,2.435-1.755,2.435-2.435,9.778-8.381S162.352-13.4,182.838,18.659Z" transform="translate(-75.5 -0.222)"/></g></g><g transform="translate(127.795 35.681)"><path class="b" d="M267.534,40A14.434,14.434,0,1,1,253.1,54.434,14.437,14.437,0,0,1,267.534,40Z" transform="translate(-253.1 -40)"/></g></g></svg>